<svg xmlns="http://www.w3.org/2000/svg" x="0px" y="0px"
width="500" height="500"
viewBox="0 0 192 192"
style=" fill:#000000;"><g fill="none" fill-rule="nonzero" stroke="none" stroke-width="1" stroke-linecap="butt" stroke-linejoin="miter" stroke-miterlimit="10" stroke-dasharray="" stroke-dashoffset="0" font-family="none" font-weight="none" font-size="none" text-anchor="none" style="mix-blend-mode: normal"><path d="M0,192v-192h192v192z" fill="none"></path><g fill="#ffffff"><path d="M96,16.07812c-30.848,0 -55.9375,25.10513 -55.9375,55.95312c0,35.864 47.73363,94.12213 49.76563,96.57813l6.17187,7.48438l6.17187,-7.48438c2.032,-2.464 49.76563,-60.71413 49.76563,-96.57813c-0.00001,-30.856 -25.0895,-55.95312 -55.9375,-55.95312zM96,32.07812c22.024,0 39.9375,17.92912 39.9375,39.95312c-0.00001,21.64 -24.9135,58.85813 -39.9375,78.57813c-15.024,-19.704 -39.9375,-56.90613 -39.9375,-78.57813c0,-22.024 17.9135,-39.95312 39.9375,-39.95312zM96,52c-11.048,0 -20,8.952 -20,20c0,11.048 8.952,20 20,20c11.048,0 20,-8.952 20,-20c0,-11.048 -8.952,-20 -20,-20z"></path></g></g></svg>