<svg xmlns="http://www.w3.org/2000/svg" viewBox="0 0 44.64 35.07"><defs><style>.cls-1{fill:#fff;}</style></defs><title>Asset 4</title><g id="Layer_2" data-name="Layer 2"><g id="Layer_1-2" data-name="Layer 1"><g id="_Group_" data-name="&lt;Group&gt;"><path id="_Compound_Path_" data-name="&lt;Compound Path&gt;" class="cls-1" d="M40.65,35.07a3.8,3.8,0,0,0,2.61-1L30.62,21.44l-.88.63c-.94.7-1.71,1.24-2.3,1.63a14.86,14.86,0,0,1-2.35,1.2,7.34,7.34,0,0,1-2.75.61h0a7.39,7.39,0,0,1-2.75-.61,14.43,14.43,0,0,1-2.35-1.2c-.59-.39-1.36-.93-2.3-1.63L14,21.44,1.37,34.09a3.84,3.84,0,0,0,2.62,1Z"/><path id="_Compound_Path_2" data-name="&lt;Compound Path&gt;" class="cls-1" d="M2.52,13.48A13.22,13.22,0,0,1,0,11.31V30.55L11.15,19.4q-3.35-2.32-8.63-5.92Z"/><path id="_Compound_Path_3" data-name="&lt;Compound Path&gt;" class="cls-1" d="M42.15,13.48q-5.09,3.43-8.65,5.93L44.64,30.55V11.31a13.48,13.48,0,0,1-2.49,2.17Z"/><path id="_Compound_Path_4" data-name="&lt;Compound Path&gt;" class="cls-1" d="M40.65,0H4A3.56,3.56,0,0,0,1,1.3,5,5,0,0,0,0,4.53a5.83,5.83,0,0,0,1.37,3.4,12.36,12.36,0,0,0,2.91,2.88l5.11,3.55,4,2.79,2.51,1.76.37.26.69.5c.54.39,1,.7,1.34.94s.79.51,1.3.81a7.33,7.33,0,0,0,1.43.68,3.93,3.93,0,0,0,1.25.22h0a3.93,3.93,0,0,0,1.25-.22A7.33,7.33,0,0,0,25,21.42c.51-.3.94-.56,1.3-.81s.81-.55,1.35-.94c.27-.21.5-.37.68-.5l.37-.26,2.53-1.76,9.13-6.34a12,12,0,0,0,3-3.06A6.62,6.62,0,0,0,44.64,4a3.81,3.81,0,0,0-1.18-2.82A3.87,3.87,0,0,0,40.65,0Z"/></g></g></g></svg>