<svg xmlns="http://www.w3.org/2000/svg" viewBox="0 0 35.62 39.14"><defs><style>.cls-1{fill:#fff;}</style></defs><title>Asset 5</title><g id="Layer_2" data-name="Layer 2"><g id="Layer_1-2" data-name="Layer 1"><g id="_Group_" data-name="&lt;Group&gt;"><path id="_Compound_Path_" data-name="&lt;Compound Path&gt;" class="cls-1" d="M35,37.82h-1.1V3.3a.65.65,0,0,0-.66-.66H20.89a.65.65,0,0,0-.66.66V6.16H18.91V3.3a.66.66,0,0,0-.66-.66H15.39v-2a.66.66,0,0,0-1.32,0v2H11.21a.66.66,0,0,0-.66.66V6.16h-2a.65.65,0,0,0-.66.66v5.49H2.42a.66.66,0,0,0-.66.66V37.82H.66a.66.66,0,0,0,0,1.32H35a.66.66,0,0,0,0-1.32ZM21.55,4h11V37.82H27.71V20a.66.66,0,0,0-1.32,0v.22H25.07V20a.66.66,0,0,0-1.32,0v.22h-2.2V4ZM11.87,4h5.72v2.2H11.87ZM9.23,7.48h11V20.23H15.39V18h2a.66.66,0,0,0,0-1.32h-2v-2.2h2a.66.66,0,1,0,0-1.32h-2V13a.66.66,0,0,0-.66-.66H9.23ZM3.08,13.63h11V37.82H11V35a.66.66,0,0,0-.66-.66H6.82a.66.66,0,0,0-.66.66v2.86H3.08ZM9.23,37.82v-1.1a.66.66,0,1,0-1.31,0v1.1H7.48v-2.2H9.67v2.2Zm6.16,0V21.55h11V37.82Z"/><path id="_Path_" data-name="&lt;Path&gt;" class="cls-1" d="M18.25,22.87a.66.66,0,0,0-.66.66V35.84a.66.66,0,0,0,1.32,0V23.53A.66.66,0,0,0,18.25,22.87Z"/><path id="_Path_2" data-name="&lt;Path&gt;" class="cls-1" d="M20.89,22.87a.65.65,0,0,0-.66.66V35.84a.66.66,0,0,0,1.32,0V23.53A.66.66,0,0,0,20.89,22.87Z"/><path id="_Path_3" data-name="&lt;Path&gt;" class="cls-1" d="M23.53,22.87a.65.65,0,0,0-.66.66V35.84a.66.66,0,0,0,1.32,0V23.53A.66.66,0,0,0,23.53,22.87Z"/><path id="_Path_4" data-name="&lt;Path&gt;" class="cls-1" d="M24.41,8.36a.67.67,0,0,0,.66-.66V6.82a.66.66,0,0,0-1.32,0V7.7A.66.66,0,0,0,24.41,8.36Z"/><path id="_Path_5" data-name="&lt;Path&gt;" class="cls-1" d="M27.05,8.36a.67.67,0,0,0,.66-.66V6.82a.66.66,0,0,0-1.32,0V7.7A.66.66,0,0,0,27.05,8.36Z"/><path id="_Path_6" data-name="&lt;Path&gt;" class="cls-1" d="M29.68,8.36a.66.66,0,0,0,.66-.66V6.82a.66.66,0,0,0-1.32,0V7.7A.67.67,0,0,0,29.68,8.36Z"/><path id="_Path_7" data-name="&lt;Path&gt;" class="cls-1" d="M24.41,12.75a.66.66,0,0,0,.66-.66v-.88a.66.66,0,0,0-1.32,0v.88A.65.65,0,0,0,24.41,12.75Z"/><path id="_Path_8" data-name="&lt;Path&gt;" class="cls-1" d="M27.05,12.75a.66.66,0,0,0,.66-.66v-.88a.66.66,0,0,0-1.32,0v.88A.65.65,0,0,0,27.05,12.75Z"/><path id="_Path_9" data-name="&lt;Path&gt;" class="cls-1" d="M29.68,12.75a.65.65,0,0,0,.66-.66v-.88a.66.66,0,0,0-1.32,0v.88A.66.66,0,0,0,29.68,12.75Z"/><path id="_Path_10" data-name="&lt;Path&gt;" class="cls-1" d="M24.41,17.15a.66.66,0,0,0,.66-.66v-.88a.66.66,0,0,0-1.32,0v.88A.65.65,0,0,0,24.41,17.15Z"/><path id="_Path_11" data-name="&lt;Path&gt;" class="cls-1" d="M27.05,17.15a.66.66,0,0,0,.66-.66v-.88a.66.66,0,0,0-1.32,0v.88A.65.65,0,0,0,27.05,17.15Z"/><path id="_Path_12" data-name="&lt;Path&gt;" class="cls-1" d="M29.68,17.15a.65.65,0,0,0,.66-.66v-.88a.66.66,0,0,0-1.32,0v.88A.66.66,0,0,0,29.68,17.15Z"/><path id="_Path_13" data-name="&lt;Path&gt;" class="cls-1" d="M5.94,18.91a.67.67,0,0,0,.66-.66v-.88a.66.66,0,1,0-1.32,0v.88A.66.66,0,0,0,5.94,18.91Z"/><path id="_Path_14" data-name="&lt;Path&gt;" class="cls-1" d="M8.58,18.91a.66.66,0,0,0,.65-.66v-.88a.66.66,0,1,0-1.31,0v.88A.66.66,0,0,0,8.58,18.91Z"/><path id="_Path_15" data-name="&lt;Path&gt;" class="cls-1" d="M11.21,18.91a.66.66,0,0,0,.66-.66v-.88a.66.66,0,0,0-1.32,0v.88A.67.67,0,0,0,11.21,18.91Z"/><path id="_Path_16" data-name="&lt;Path&gt;" class="cls-1" d="M5.94,23.31a.67.67,0,0,0,.66-.66v-.88a.66.66,0,1,0-1.32,0v.88A.66.66,0,0,0,5.94,23.31Z"/><path id="_Path_17" data-name="&lt;Path&gt;" class="cls-1" d="M8.58,23.31a.66.66,0,0,0,.65-.66v-.88a.66.66,0,1,0-1.31,0v.88A.66.66,0,0,0,8.58,23.31Z"/><path id="_Path_18" data-name="&lt;Path&gt;" class="cls-1" d="M11.21,23.31a.66.66,0,0,0,.66-.66v-.88a.66.66,0,0,0-1.32,0v.88A.67.67,0,0,0,11.21,23.31Z"/><path id="_Path_19" data-name="&lt;Path&gt;" class="cls-1" d="M5.94,27.7a.66.66,0,0,0,.66-.65v-.88a.66.66,0,1,0-1.32,0v.88A.65.65,0,0,0,5.94,27.7Z"/><path id="_Path_20" data-name="&lt;Path&gt;" class="cls-1" d="M8.58,27.7a.65.65,0,0,0,.65-.65v-.88a.66.66,0,1,0-1.31,0v.88A.65.65,0,0,0,8.58,27.7Z"/><path id="_Path_21" data-name="&lt;Path&gt;" class="cls-1" d="M11.21,27.7a.65.65,0,0,0,.66-.65v-.88a.66.66,0,1,0-1.32,0v.88A.66.66,0,0,0,11.21,27.7Z"/><path id="_Path_22" data-name="&lt;Path&gt;" class="cls-1" d="M6.6,31.44v-.88a.66.66,0,1,0-1.32,0v.88a.66.66,0,1,0,1.32,0Z"/><path id="_Path_23" data-name="&lt;Path&gt;" class="cls-1" d="M8.58,32.1a.65.65,0,0,0,.65-.66v-.88a.66.66,0,1,0-1.31,0v.88A.65.65,0,0,0,8.58,32.1Z"/><path id="_Path_24" data-name="&lt;Path&gt;" class="cls-1" d="M11.21,32.1a.65.65,0,0,0,.66-.66v-.88a.66.66,0,1,0-1.32,0v.88A.66.66,0,0,0,11.21,32.1Z"/><path id="_Path_25" data-name="&lt;Path&gt;" class="cls-1" d="M29.68,21.55a.66.66,0,0,0,.66-.66V20A.66.66,0,1,0,29,20v.88A.67.67,0,0,0,29.68,21.55Z"/><path id="_Path_26" data-name="&lt;Path&gt;" class="cls-1" d="M29.68,26a.66.66,0,0,0,.66-.66v-.88a.66.66,0,1,0-1.32,0v.88A.67.67,0,0,0,29.68,26Z"/><path id="_Path_27" data-name="&lt;Path&gt;" class="cls-1" d="M29.68,30.34a.65.65,0,0,0,.66-.66V28.8a.66.66,0,1,0-1.32,0v.88A.66.66,0,0,0,29.68,30.34Z"/><path id="_Path_28" data-name="&lt;Path&gt;" class="cls-1" d="M29.68,34.74a.65.65,0,0,0,.66-.66V33.2a.66.66,0,0,0-1.32,0v.88A.66.66,0,0,0,29.68,34.74Z"/><path id="_Path_29" data-name="&lt;Path&gt;" class="cls-1" d="M18,10.33a.67.67,0,0,0-.66-.66H12.09a.66.66,0,0,0,0,1.32h5.28A.66.66,0,0,0,18,10.33Z"/></g></g></g></svg>