<svg xmlns="http://www.w3.org/2000/svg" viewBox="0 0 104.75 104.88"><defs><style>.cls-1{fill:none;stroke:#034760;stroke-miterlimit:10;stroke-width:2px;}</style></defs><title>Asset 7</title><g id="Layer_2" data-name="Layer 2"><g id="Layer_1-2" data-name="Layer 1"><g id="_Group_" data-name="&lt;Group&gt;"><g id="_Group_2" data-name="&lt;Group&gt;"><path id="_Path_" data-name="&lt;Path&gt;" class="cls-1" d="M54.5,91.62c-5.29,0-10.58-.08-15.87,0A3.42,3.42,0,0,1,35,89.51q-7.42-15.12-15-30.15c-.81-1.59-.61-2.45.71-3.66,10.14-9.3,20.61-9.84,31.5-1.43a5.65,5.65,0,0,0,3.73,1.17c4.51,0,9,0,13.52,0,4.28,0,7.09,2.4,7.14,6s-2.82,6.13-7.29,6.17q-5.07,0-10.14,0c-2.12,0-3.6.79-3.57,3.06,0,2.07,1.48,2.94,3.4,3,4.39,0,8.78.1,13.17,0a7.2,7.2,0,0,0,5.68-3.09c4.84-6.21,9.87-12.28,14.88-18.36,2.51-3.06,5.83-3.54,8.6-1.42,2.92,2.26,3.34,5.23,1,8.59C96.55,67.5,90.85,75.73,85,83.89a17.78,17.78,0,0,1-15.32,7.73Z" transform="translate(0 0)"/><path id="_Path_2" data-name="&lt;Path&gt;" class="cls-1" d="M9.05,59.26A5.94,5.94,0,0,1,15,62.74C20,72.87,25.09,83,30.08,93.16c1.58,3.22.54,6.25-2.48,8.12-6.27,3.87-6.58,3.78-9.88-2.82L2.23,67.54c-2-4-1.79-4.63,2.32-6.66C6.05,60.14,7.49,59.2,9.05,59.26Z" transform="translate(0 0)"/><path id="_Path_3" data-name="&lt;Path&gt;" class="cls-1" d="M55.09,43.38c-4.72,0-9.45-.05-14.17,0-2.54,0-3.66-1.09-3.74-3.62-.14-4.49.51-8.72,3.12-12.52.91-1.32,1.49-1.74,3.06-.49q11.85,9.4,24-.05c1.34-1,1.92-.95,2.85.35,3,4.19,3.68,8.87,3.16,13.81-.22,2.14-1.88,2.52-3.74,2.51C64.76,43.36,59.92,43.38,55.09,43.38Z" transform="translate(0 0)"/><path id="_Path_4" data-name="&lt;Path&gt;" class="cls-1" d="M67.44,13.13A12.12,12.12,0,1,1,55.24,1,12.07,12.07,0,0,1,67.44,13.13Z" transform="translate(0 0)"/></g></g></g></g></svg>