<svg xmlns="http://www.w3.org/2000/svg" viewBox="0 0 98.14 97.88"><defs><style>.cls-1{fill:#034760;}</style></defs><title>Asset 4</title><g id="Layer_2" data-name="Layer 2"><g id="Layer_1-2" data-name="Layer 1"><g id="_Group_" data-name="&lt;Group&gt;"><g id="_Group_2" data-name="&lt;Group&gt;"><g id="_Group_3" data-name="&lt;Group&gt;"><g id="_Group_4" data-name="&lt;Group&gt;"><path id="_Compound_Path_" data-name="&lt;Compound Path&gt;" class="cls-1" d="M98.09,49.19c0-.34,0-.68,0-1,0-.76.11-1.64-.83-2a1.72,1.72,0,0,0-2.06.75c-1,1.18-1.88,2.42-2.81,3.64l-1.06-.7V46.92c0-6.66.06-13.33,0-20-.09-7.93,1.33-7-6.91-7.08-1.53,0-3.06,0-4.59,0L79.53,19c1.23-1.15,2.51-2.27,3.7-3.46,6.56-6.53,6.55-6.93-.1-13.32-3.08-3-4.95-3-8,.09C69.79,7.55,64.53,12.84,59.27,18.12a4.58,4.58,0,0,1-3.45,1.76q-20.51-.07-41,0c-1.62,0-2.16-.56-2.12-2.17.09-3.61,0-7.23,0-10.84,0-2.34-1-2.92-3.16-2.53C3.71,5.37,0,9.85,0,16.43q0,29,0,57.94c0,8.7,4.14,12.83,12.86,12.84,12.65,0,25.3,0,38,0,1.07,0,2.21-.34,3.49.46-2.2,2.2-4.33,4.31-6.42,6.46-.74.77-2,1.44-1.44,2.79s1.95.85,3,.85c15.14,0,30.27,0,45.41.07,2.5,0,3.3-.72,3.28-3.27C98,79.46,98.09,64.32,98.09,49.19ZM79.13,3C80.2,3,85.25,8,85,9c-.35,1.65-1.85,2.45-3,3.44-.32.28-6.41-5.56-6.45-6.14C75.52,5.6,78.28,3,79.13,3ZM71.84,9.54c1.09-1.07,1.79-.94,2.75.09,1.61,1.72,3.33,3.34,4.94,4.94-.18,1.18-1.07,1.6-1.66,2.23s-1.2.2-1.69-.28c-1.45-1.42-2.83-2.92-4.35-4.27C70.71,11.25,70.78,10.58,71.84,9.54Zm23.3,83.58c.65,2.22-1.3,1.79-2.55,1.79H51.06L63.85,82.29c.56-.56,1.12-1.11,1.66-1.69s.84-1.36.16-2.1a1.31,1.31,0,0,0-2.07,0,4.1,4.1,0,0,0-.73.71c-3.11,4.85-7.8,5.1-13,5-12.65-.25-25.31-.07-38-.09-5.14,0-8.53-2.63-8.94-6.84-.44-4.43,2.45-8,7.4-8.84,1.46-.25,2.34-.64,2.34-2.23,0-3,0-6.1,0-9.15,0-1-.18-2-1.29-2C10.13,55,9.77,56,9.8,57.1c0,.11,0,.23,0,.34.89,5.38-.13,9.65-7.26,10.59.14,0,.4-.61.4-1.1,0-17,0-33.9,0-50.85A8.53,8.53,0,0,1,7.21,8.2c1.87-1.14,2.66-1,2.64,1.56-.11,12.32,0,24.64,0,37a13.76,13.76,0,0,0,0,1.7c.17,1.33-.68,3.5,1.44,3.52s1.43-2.18,1.44-3.49c.06-7.68,0-15.37,0-23,0-1.19-.35-2.55,1.69-2.54,13.07,0,26.13,0,39.2,0,.11.27.23.54.35.81L47.35,30c-.85.82-1.7,1.8-.51,2.85s1.86-.09,2.57-.8c5.68-5.67,11.41-11.28,17-17.07,1.64-1.71,2.56-1.72,4.22,0,4.47,4.64,4.56,4.56,0,9.16C62.81,31.87,55,39.59,47.33,47.4c-1.42,1.45-2.21,1.91-3.89.18-4.61-4.75-4.69-4.64-.18-9.41.76-.8,2.45-1.58,1.11-3-1.51-1.59-2.26.36-3.25,1-5.82,4-7.57,10.42-9.54,16.63-.73,2.28-1.68,3.45-4.21,3.06-1.18-.18-3-.29-3,1.34,0,1.84,1.8,1.6,3.14,1.6q18.14,0,36.27,0c1.29,0,3.14.38,3.07-1.62-.06-1.75-1.82-1.33-3-1.33-8.33,0-16.65,0-25.05,0,.16-.35.22-.69.34-.72,5.44-1.16,9.31-4.57,13-8.48,6.62-7,13.64-13.52,20.26-20.47a9.9,9.9,0,0,1,8.23-3.42c7.74.27,7.75.09,7.75,7.67,0,6.67-.08,13.34,0,20a6.53,6.53,0,0,1-2.15,5.32c-5.92,5.74-11.71,11.62-17.51,17.48-.72.73-2.14,1.49-1,2.76s2.21.09,3.05-.76c7.9-7.91,15.77-15.85,24.34-24.47,0,4.47,0,8.11,0,11.74,0,1.47-1.19,1-2,1.07-1,0-1.92.22-2,1.37s.86,1.54,1.85,1.45c1.53-.14,2.25.24,2.2,2S95,71,93.1,70.84c-.93-.08-1.92.27-1.88,1.45a1.56,1.56,0,0,0,1.91,1.46c1.56-.15,2.17.28,2.17,2S94.76,78.17,93,78a1.48,1.48,0,0,0-1.78,1.57c0,1,.91,1.32,1.72,1.26,1.74-.14,2.34.46,2.36,2.28s-.72,2.35-2.39,2.2c-.86-.08-1.65.31-1.67,1.27,0,1.13.79,1.5,1.81,1.52C97.38,88.2,94.65,91.42,95.14,93.12ZM42.83,50.72c-2.36.64-3.78,2.3-5.69.23-1.25-1.35-1.1-2.43-.51-3.88.47-1.13.85-1.45,1.82-.48C39.7,47.86,41,49,42.83,50.72Z" transform="translate(0)"/></g></g><g id="_Group_5" data-name="&lt;Group&gt;"><g id="_Group_6" data-name="&lt;Group&gt;"><path id="_Compound_Path_2" data-name="&lt;Compound Path&gt;" class="cls-1" d="M87.74,78.45c0-2.26,0-4.52,0-6.78,0-.9.15-1.9-.83-2.4s-1.69.19-2.34.84L70.18,84.46c-.67.67-1.22,1.38-.79,2.38s1.3.77,2.06.77c4.63,0,9.26,0,13.89,0,1.68,0,2.49-.64,2.42-2.41C87.68,83,87.74,80.7,87.74,78.45Zm-4.55,6.28c-2.77,0-5.54,0-8.62,0l10.35-10c0,2.85,0,5.7,0,8.55C85,84.55,84.2,84.73,83.19,84.73Z" transform="translate(0)"/></g></g></g></g></g></g></svg>