<svg xmlns="http://www.w3.org/2000/svg" viewBox="0 0 97.31 97.31"><defs><style>.cls-1{fill:#034760;}</style></defs><title>Asset 8</title><g id="Layer_2" data-name="Layer 2"><g id="Layer_1-2" data-name="Layer 1"><g id="_Group_" data-name="&lt;Group&gt;"><g id="_Group_2" data-name="&lt;Group&gt;"><g id="_Group_3" data-name="&lt;Group&gt;"><g id="_Group_4" data-name="&lt;Group&gt;"><path id="_Compound_Path_" data-name="&lt;Compound Path&gt;" class="cls-1" d="M95.69,58.39H1.62A1.53,1.53,0,0,1,0,56.77V47a1.53,1.53,0,0,1,1.62-1.62H95.69A1.53,1.53,0,0,1,97.31,47v9.74A1.53,1.53,0,0,1,95.69,58.39ZM3.24,55.14H94.07V48.66H3.24Z"/></g></g><g id="_Group_5" data-name="&lt;Group&gt;"><g id="_Group_6" data-name="&lt;Group&gt;"><path id="_Compound_Path_2" data-name="&lt;Compound Path&gt;" class="cls-1" d="M40.55,48.66H14.6A1.53,1.53,0,0,1,13,47V35.68a14.48,14.48,0,0,1,6.16-11.84,2.07,2.07,0,0,1,1.94,0,11.46,11.46,0,0,0,13.14,0,2.09,2.09,0,0,1,2,0,14.48,14.48,0,0,1,6.16,11.84V47A1.77,1.77,0,0,1,40.55,48.66ZM16.22,45.41H38.93V35.68A11.8,11.8,0,0,0,35,27.09a14.52,14.52,0,0,1-14.92,0,11.83,11.83,0,0,0-3.89,8.59Z"/></g></g><g id="_Group_7" data-name="&lt;Group&gt;"><g id="_Group_8" data-name="&lt;Group&gt;"><path id="_Compound_Path_3" data-name="&lt;Compound Path&gt;" class="cls-1" d="M27.57,22.71A11.29,11.29,0,0,1,16.22,11.35a11.36,11.36,0,0,1,22.71,0A11.29,11.29,0,0,1,27.57,22.71Zm0-19.47a8,8,0,0,0-8.11,8.11,8.11,8.11,0,1,0,16.22,0A8,8,0,0,0,27.57,3.24Z"/></g></g><g id="_Group_9" data-name="&lt;Group&gt;"><g id="_Group_10" data-name="&lt;Group&gt;"><path id="_Compound_Path_4" data-name="&lt;Compound Path&gt;" class="cls-1" d="M81.09,43.79H64.88a1.54,1.54,0,0,1-1.63-1.62V35.68a1.54,1.54,0,0,1,1.63-1.62H81.09a1.54,1.54,0,0,1,1.63,1.62v6.49A1.54,1.54,0,0,1,81.09,43.79ZM66.5,40.55h13V37.3h-13Z"/></g></g><g id="_Group_11" data-name="&lt;Group&gt;"><g id="_Group_12" data-name="&lt;Group&gt;"><path id="_Compound_Path_5" data-name="&lt;Compound Path&gt;" class="cls-1" d="M82.72,37.3H63.25a1.53,1.53,0,0,1-1.62-1.62,11.36,11.36,0,0,1,22.71,0A1.53,1.53,0,0,1,82.72,37.3ZM65,34.06H80.93a8.11,8.11,0,0,0-15.89,0Z"/></g></g><g id="_Group_13" data-name="&lt;Group&gt;"><g id="_Group_14" data-name="&lt;Group&gt;"><path id="_Compound_Path_6" data-name="&lt;Compound Path&gt;" class="cls-1" d="M82.72,48.66H63.25A1.54,1.54,0,0,1,61.63,47V42.17a1.53,1.53,0,0,1,1.62-1.62H82.72a1.53,1.53,0,0,1,1.62,1.62V47A1.54,1.54,0,0,1,82.72,48.66ZM64.88,45.41H81.09V43.79H64.88Z"/></g></g><g id="_Group_15" data-name="&lt;Group&gt;"><g id="_Group_16" data-name="&lt;Group&gt;"><path id="_Compound_Path_7" data-name="&lt;Compound Path&gt;" class="cls-1" d="M90.83,97.31H6.49a4.77,4.77,0,0,1-4.87-4.86V56.77a1.54,1.54,0,0,1,1.62-1.63H94.07a1.54,1.54,0,0,1,1.62,1.63V92.45A4.77,4.77,0,0,1,90.83,97.31Zm-86-38.92V92.45a1.53,1.53,0,0,0,1.62,1.62H90.83a1.53,1.53,0,0,0,1.62-1.62V58.39Z"/></g></g><g id="_Group_17" data-name="&lt;Group&gt;"><g id="_Group_18" data-name="&lt;Group&gt;"><path id="_Compound_Path_8" data-name="&lt;Compound Path&gt;" class="cls-1" d="M27.57,42.17a1.72,1.72,0,0,1-1.46-.81l-4.86-8.11a1.5,1.5,0,0,1,.32-1.95l4.87-4.86a1.57,1.57,0,0,1,2.27,0l4.86,4.86a1.73,1.73,0,0,1,.33,1.95L29,41.36A1.71,1.71,0,0,1,27.57,42.17Zm-2.76-9.41,2.76,4.71,2.76-4.71-2.76-2.92Z"/></g></g><g id="_Group_19" data-name="&lt;Group&gt;"><g id="_Group_20" data-name="&lt;Group&gt;"><path id="_Compound_Path_9" data-name="&lt;Compound Path&gt;" class="cls-1" d="M47,90.83a14.6,14.6,0,1,1,14.6-14.6A14.54,14.54,0,0,1,47,90.83Zm0-25.95A11.35,11.35,0,1,0,58.39,76.23,11.28,11.28,0,0,0,47,64.88Z"/></g></g><g id="_Group_21" data-name="&lt;Group&gt;"><path id="_Path_" data-name="&lt;Path&gt;" class="cls-1" d="M47,84.34a8,8,0,0,1-8.1-8.11,1.62,1.62,0,1,1,3.24,0A4.77,4.77,0,0,0,47,81.09a1.63,1.63,0,1,1,0,3.25Z"/></g><g id="_Group_22" data-name="&lt;Group&gt;"><path id="_Path_2" data-name="&lt;Path&gt;" class="cls-1" d="M53.52,77.85a1.53,1.53,0,0,1-1.62-1.62A4.78,4.78,0,0,0,47,71.36a1.62,1.62,0,0,1,0-3.24,8,8,0,0,1,8.11,8.11A1.53,1.53,0,0,1,53.52,77.85Z"/></g><g id="_Group_23" data-name="&lt;Group&gt;"><path id="_Path_3" data-name="&lt;Path&gt;" class="cls-1" d="M14.6,90.83H3.24a1.63,1.63,0,0,1,0-3.25H14.6a1.63,1.63,0,0,1,0,3.25Z"/></g><g id="_Group_24" data-name="&lt;Group&gt;"><path id="_Path_4" data-name="&lt;Path&gt;" class="cls-1" d="M14.6,84.34H3.24a1.63,1.63,0,0,1,0-3.25H14.6a1.63,1.63,0,0,1,0,3.25Z"/></g><g id="_Group_25" data-name="&lt;Group&gt;"><path id="_Path_5" data-name="&lt;Path&gt;" class="cls-1" d="M94.07,90.83H82.72a1.63,1.63,0,1,1,0-3.25H94.07a1.63,1.63,0,0,1,0,3.25Z"/></g><g id="_Group_26" data-name="&lt;Group&gt;"><path id="_Path_6" data-name="&lt;Path&gt;" class="cls-1" d="M94.07,84.34H82.72a1.63,1.63,0,1,1,0-3.25H94.07a1.63,1.63,0,0,1,0,3.25Z"/></g></g></g></g></g></svg>