<svg xmlns="http://www.w3.org/2000/svg" viewBox="0 0 96.63 79.69"><defs><style>.cls-1{fill:none;stroke:#034760;stroke-miterlimit:10;stroke-width:2px;}</style></defs><title>Asset 2</title><g id="Layer_2" data-name="Layer 2"><g id="Layer_1-2" data-name="Layer 1"><g id="_Group_" data-name="&lt;Group&gt;"><g id="_Group_2" data-name="&lt;Group&gt;"><g id="_Group_3" data-name="&lt;Group&gt;"><path id="_Path_" data-name="&lt;Path&gt;" class="cls-1" d="M34.27,34.6c0,4.54-.08,9.08,0,13.61,0,2-.44,2.9-2.64,2.8-3.55-.16-7.11,0-10.67,0-1.76,0-3.75-.17-4.8-1.44-2.6-3.14-6.2-4.27-9.66-5.94-3.95-1.9-6.06-6.74-5.43-10.8A11.19,11.19,0,0,1,9.9,23.54,5.67,5.67,0,0,0,14.07,21a6.56,6.56,0,0,1,5.2-3.09c4.4-.21,8.82-.07,13.23-.14,1.9,0,1.78,1.21,1.77,2.47C34.26,25,34.27,29.82,34.27,34.6Z"/></g><g id="_Group_4" data-name="&lt;Group&gt;"><path id="_Path_2" data-name="&lt;Path&gt;" class="cls-1" d="M62.19,34.18q0-13,0-26.12c0-4.5,2.14-7.14,5.64-7.06,3.25.08,5.46,2.82,5.47,7q0,26.49,0,53c0,4-2.42,6.77-5.72,6.68S62.22,65,62.2,61C62.17,52.09,62.19,43.14,62.19,34.18Z"/></g><g id="_Group_5" data-name="&lt;Group&gt;"><path id="_Path_3" data-name="&lt;Path&gt;" class="cls-1" d="M56.36,8.46V59.84c-3.39-2.78-6.22-5.75-10.19-7.13-6.3-2.19-6.26-2.3-6.26-9.16,0-7.72.05-15.45,0-23.18,0-2,.29-3.07,2.63-3.42C47.93,16.15,52.13,13,56.36,8.46Z"/></g><g id="_Group_6" data-name="&lt;Group&gt;"><path id="_Path_4" data-name="&lt;Path&gt;" class="cls-1" d="M26.1,56.32c8.17,0,8.17,0,8.17,8.22,0,2.09.11,4.18-.05,6.25a8.24,8.24,0,0,1-8.46,7.9,8.1,8.1,0,0,1-7.88-8.08c-.16-3.79.12-7.61-.11-11.39-.15-2.59.9-3.17,3.19-2.94C22.66,56.45,24.39,56.32,26.1,56.32Z"/></g><g id="_Group_7" data-name="&lt;Group&gt;"><path id="_Path_5" data-name="&lt;Path&gt;" class="cls-1" d="M88.52,39.65c-1.35,0-2.7,0-4,0a2.62,2.62,0,0,1-2.81-2.4,2.6,2.6,0,0,1,2.75-2.82c2.82-.09,5.65-.1,8.47,0a2.52,2.52,0,0,1,2.75,2.78c0,1.67-1.22,2.34-2.7,2.44S90,39.65,88.52,39.65Z"/></g><g id="_Group_8" data-name="&lt;Group&gt;"><path id="_Path_6" data-name="&lt;Path&gt;" class="cls-1" d="M81.63,45.3a7.08,7.08,0,0,1,2,.91c1.94,1.82,3.86,3.69,5.66,5.66a2.44,2.44,0,0,1-.08,3.6,2.47,2.47,0,0,1-3.6.28c-2.11-1.82-4.13-3.76-6-5.78a3.05,3.05,0,0,1-.29-3.14C79.65,45.73,80.74,45.71,81.63,45.3Z"/></g><g id="_Group_9" data-name="&lt;Group&gt;"><path id="_Path_7" data-name="&lt;Path&gt;" class="cls-1" d="M81.66,28.75c-1-.19-2-.46-2.38-1.52a3,3,0,0,1,.32-3.15q2.94-3,6.17-5.78a2.34,2.34,0,0,1,3.33.28c.82.82,1.41,2,.61,3a36.57,36.57,0,0,1-7,6.92A3,3,0,0,1,81.66,28.75Z"/></g></g></g></g></g></svg>