<svg xmlns="http://www.w3.org/2000/svg" x="0px" y="0px"
width="500" height="500"
viewBox="0 0 192 192"
style=" fill:#000000;"><g transform=""><g fill="none" fill-rule="nonzero" stroke="none" stroke-width="1" stroke-linecap="butt" stroke-linejoin="miter" stroke-miterlimit="10" stroke-dasharray="" stroke-dashoffset="0" font-family="none" font-weight="none" font-size="none" text-anchor="none" style="mix-blend-mode: normal"><path d="M0,192v-192h192v192z" fill="none"></path><path d="" fill="none"></path><path d="" fill="none"></path><path d="" fill="none"></path><path d="" fill="none"></path><path d="" fill="none"></path><path d="" fill="none"></path><path d="M96,192c-53.01934,0 -96,-42.98066 -96,-96v0c0,-53.01934 42.98066,-96 96,-96v0c53.01934,0 96,42.98066 96,96v0c0,53.01934 -42.98066,96 -96,96z" fill="none"></path><path d="M96,188.16c-50.89856,0 -92.16,-41.26144 -92.16,-92.16v0c0,-50.89856 41.26144,-92.16 92.16,-92.16v0c50.89856,0 92.16,41.26144 92.16,92.16v0c0,50.89856 -41.26144,92.16 -92.16,92.16z" fill="none"></path><path d="M0,192v-192h192v192z" fill="none"></path><path d="M3.84,188.16v-184.32h184.32v184.32z" fill="none"></path><g fill="#ffffff"><path d="M96,16c-31.76,0.168 -62.947,12.77512 -85.875,35.70312c-3.392,3.392 -2.208,7.89338 0,10.10938l17.73438,17.71875c1.4,1.4 3.2225,2.10937 5.0625,2.10937c1.768,0 3.5535,-0.66438 4.9375,-1.98437c3.264,-3.104 7.44588,-6.92 10.42187,-9c3.216,-2.256 7.46,-4.60312 10.5,-6.20312c2.384,-1.256 3.84338,-3.72588 3.85938,-6.42188l0.07813,-22.34375c11.696,-3.632 22.54475,-5.09375 32.96875,-5.09375h0.3125h0.3125c10.43201,0 21.27275,1.46175 32.96875,5.09375l0.07813,22.34375c0.008,2.696 1.47538,5.16588 3.85938,6.42188c3.032,1.6 7.276,3.9315 10.5,6.1875c2.976,2.08 7.16587,5.91162 10.42187,9.01562c1.384,1.32 3.1695,1.96875 4.9375,1.96875c1.832,0 3.6625,-0.69375 5.0625,-2.09375l17.73438,-17.73437c2.216,-2.208 3.4,-6.70175 0,-10.09375c-22.928,-22.928 -54.115,-35.53512 -85.875,-35.70312zM46.6875,44.4375l-0.03125,8.40625c-2.928,1.664 -5.4585,3.23112 -7.5625,4.70312c-1.696,1.184 -3.65025,2.75112 -5.90625,4.70312l-5.21875,-5.21875c5.768,-4.856 12.06275,-9.07375 18.71875,-12.59375zM145.3125,44.45312c6.65601,3.512 12.95075,7.72212 18.71875,12.57812l-5.21875,5.21875c-2.256,-1.952 -4.21025,-3.51912 -5.90625,-4.70312c-2.096,-1.472 -4.6345,-3.03912 -7.5625,-4.70312zM72,56v16l-33.98438,27.1875c-3.8,3.03199 -6.01562,7.636 -6.01562,12.5v40.3125h-8v16h144v-16h-8v-40.3125c0,-4.86401 -2.21562,-9.46001 -6.01562,-12.5l-33.98438,-27.1875v-16h-16v16h-16v-16zM77.60938,88h36.78125l29.60938,23.6875v40.3125h-96v-40.3125zM72,104c-4.41828,0 -8,3.58172 -8,8c0,4.41828 3.58172,8 8,8c4.41828,0 8,-3.58172 8,-8c0,-4.41828 -3.58172,-8 -8,-8zM96,104c-4.41828,0 -8,3.58172 -8,8c0,4.41828 3.58172,8 8,8c4.41828,0 8,-3.58172 8,-8c0,-4.41828 -3.58172,-8 -8,-8zM120,104c-4.41828,0 -8,3.58172 -8,8c0,4.41828 3.58172,8 8,8c4.41828,0 8,-3.58172 8,-8c0,-4.41828 -3.58172,-8 -8,-8zM72,128c-4.41828,0 -8,3.58172 -8,8c0,4.41828 3.58172,8 8,8c4.41828,0 8,-3.58172 8,-8c0,-4.41828 -3.58172,-8 -8,-8zM96,128c-4.41828,0 -8,3.58172 -8,8c0,4.41828 3.58172,8 8,8c4.41828,0 8,-3.58172 8,-8c0,-4.41828 -3.58172,-8 -8,-8zM120,128c-4.41828,0 -8,3.58172 -8,8c0,4.41828 3.58172,8 8,8c4.41828,0 8,-3.58172 8,-8c0,-4.41828 -3.58172,-8 -8,-8z"></path></g></g></g></svg>