<svg xmlns="http://www.w3.org/2000/svg" viewBox="0 0 41.12 33.86"><defs><style>.cls-1{fill:#fff;}</style></defs><title>Asset 6</title><g id="Layer_2" data-name="Layer 2"><g id="Layer_1-2" data-name="Layer 1"><g id="_Group_" data-name="&lt;Group&gt;"><path id="_Compound_Path_" data-name="&lt;Compound Path&gt;" class="cls-1" d="M20.79,6.19c6.93.06,11.27-.37,11.85,7.31h8.45C41.09,1.6,30.72,0,20.57,0S0,1.6,0,13.5H8.42c.65-7.83,5.5-7.38,12.37-7.31Z"/><path id="_Compound_Path_2" data-name="&lt;Compound Path&gt;" class="cls-1" d="M4.23,17.32c2.06,0,3.77.13,4.16-1.9a5.22,5.22,0,0,0,.07-.94H0c0,3,1.89,2.84,4.23,2.84Z"/><path id="_Compound_Path_3" data-name="&lt;Compound Path&gt;" class="cls-1" d="M32.7,14.48h-.08a4.35,4.35,0,0,0,.09.94c.4,1.87,2.11,1.76,4.16,1.76,2.35,0,4.25.15,4.25-2.7Z"/><path id="_Compound_Path_4" data-name="&lt;Compound Path&gt;" class="cls-1" d="M28.57,12.43v-1.2c0-.54-.62-.57-1.38-.57H26c-.76,0-1.38,0-1.38.57v1.83h-8.8V11.23c0-.54-.61-.57-1.38-.57H13.15c-.76,0-1.38,0-1.38.57v2.24c-2,2.08-8.56,11-8.8,12v7.17a1.2,1.2,0,0,0,1.2,1.2h32a1.2,1.2,0,0,0,1.2-1.2v-7.2c-.24-1-6.79-9.91-8.8-12Zm-13.23,14a1.17,1.17,0,1,1,1.16-1.17,1.17,1.17,0,0,1-1.16,1.17Zm0-4a1.17,1.17,0,1,1,1.16-1.17,1.17,1.17,0,0,1-1.16,1.17Zm0-4a1.17,1.17,0,1,1,1.16-1.17,1.17,1.17,0,0,1-1.16,1.17Zm4.8,8a1.17,1.17,0,1,1,1.16-1.17,1.17,1.17,0,0,1-1.16,1.17Zm0-4a1.17,1.17,0,1,1,1.16-1.17,1.17,1.17,0,0,1-1.16,1.17Zm0-4a1.17,1.17,0,1,1,1.16-1.17,1.17,1.17,0,0,1-1.16,1.17Zm4.8,8a1.17,1.17,0,1,1,1.16-1.17,1.17,1.17,0,0,1-1.16,1.17Zm0-4a1.17,1.17,0,1,1,1.16-1.17,1.17,1.17,0,0,1-1.16,1.17Zm0-4a1.17,1.17,0,1,1,1.16-1.17,1.17,1.17,0,0,1-1.16,1.17Z"/></g></g></g></svg>