<svg xmlns="http://www.w3.org/2000/svg" viewBox="0 0 98.96 98.5"><defs><style>.cls-1{fill:#034760;}</style></defs><title>Asset 6</title><g id="Layer_2" data-name="Layer 2"><g id="Layer_1-2" data-name="Layer 1"><g id="_Group_" data-name="&lt;Group&gt;"><g id="_Group_2" data-name="&lt;Group&gt;"><path class="cls-1" d="M27.09,2h.32c.64.05,1.31.07,2.06.07s1.68,0,2.4-.05H32c.88,0,1.31.07,1.54,1.57A7.29,7.29,0,0,0,45.19,8.3a1.83,1.83,0,0,1,.94-.48,1.51,1.51,0,0,1,.8.52l1,1c.76.77,1.54,1.57,2.37,2.33,1,.9,1.11,1.32.18,2.55a6.94,6.94,0,0,0,4.66,11.1c1.42.18,1.7.51,1.65,1.95a39.91,39.91,0,0,0,0,4.09c.1,1.41-.14,1.85-1.88,2.08a6.92,6.92,0,0,0-5.49,4.33,6.81,6.81,0,0,0,.91,6.88c1.17,1.46,1,1.87,0,2.74s-2.12,2-3.14,3.12a1.82,1.82,0,0,1-1,.65c-.09,0-.46-.05-1.21-.66a7,7,0,0,0-11.56,4.72c-.17,1.62-.46,1.74-2.24,1.74l-1,0-1.24,0h-.17l-.18,0a8.38,8.38,0,0,1-1.31.13c-.95,0-2,0-2-3,0-3.16-3.64-5.28-7-5.28a5.63,5.63,0,0,0-3.29.95,13.18,13.18,0,0,1-2.21,1.4,17.82,17.82,0,0,1-2.95-2.55l-.35-.34c-2-1.92-1.94-2.55-.59-4.07a6.33,6.33,0,0,0,.78-6.72,5.75,5.75,0,0,0-5-3.74,3.27,3.27,0,0,1-2.12-.55C2.11,32.78,2,31.84,2,30.3v-.51a18.49,18.49,0,0,1,.29-3.72A11.75,11.75,0,0,1,5,25.41c1.81-.34,3.43-1.91,4.35-4.2s.82-4.58-.27-6.09c-.18-.26-.39-.52-.6-.78A6.48,6.48,0,0,1,7.55,13a.4.4,0,0,1,.07-.12l.46-.6c1.47-1.89,2.85-3.68,4.84-4.46h0a5.55,5.55,0,0,0,4.37,2.3A9,9,0,0,0,21.22,9a11.89,11.89,0,0,1,1.57-.66,3.87,3.87,0,0,0,2.75-4.12c0-.17,0-.34,0-.51.18-1.6.69-1.68,1.52-1.68h0m2.47,39.76A12.63,12.63,0,0,0,42.23,29.33,12.85,12.85,0,0,0,29.71,16.58h-.15A12.61,12.61,0,0,0,17.05,29.11,12.45,12.45,0,0,0,29.5,41.76h.06M27.09,0c-2.2,0-3.25,1.21-3.51,3.45-.13,1.11.23,2.48-1.35,2.94S19,8.11,17.33,8.11a3.62,3.62,0,0,1-2.91-1.68,2.33,2.33,0,0,0-1.58-.65,1.18,1.18,0,0,0-.34,0c-2.93,1-4.68,3.54-6.45,5.81-1.35,1.72.37,3.23,1.4,4.66,1.46,2-.42,6.7-2.83,7.15-4.57.87-4.43.87-4.61,6.8-.1,3.37.57,5.36,4.52,5.47,3,.09,4.81,4.83,2.76,7.13-2.44,2.73-1.64,4.62.7,6.85,2.49,2.38,3.55,3.44,4.67,3.44.86,0,1.76-.63,3.37-1.77a3.73,3.73,0,0,1,2.14-.58c2.28,0,5,1.42,5,3.29,0,3.75,1.67,5,4,5a9.89,9.89,0,0,0,1.66-.16h0c.78,0,1.54,0,2.26,0,2.18,0,3.9-.39,4.23-3.53a5.06,5.06,0,0,1,5-4.59A5.13,5.13,0,0,1,43.68,52a4,4,0,0,0,2.48,1.12,3.36,3.36,0,0,0,2.41-1.28c1-1,2-2.06,3-3,2-1.77,1.92-3.43.28-5.49a5,5,0,0,1,3.26-8c2.6-.34,3.8-1.56,3.63-4.19a36.06,36.06,0,0,1,0-3.89c.08-2.39-.86-3.68-3.4-4A4.93,4.93,0,0,1,52,15.4c1.53-2,1.35-3.6-.43-5.23-1.13-1-2.18-2.16-3.27-3.24a3.12,3.12,0,0,0-2.21-1.11A3.66,3.66,0,0,0,44,6.7a5.21,5.21,0,0,1-3.17,1.08,5.29,5.29,0,0,1-5.26-4.49C35.21,1.08,34.18,0,32,0H31.8c-.77,0-1.55.05-2.33.05S28.19.06,27.55,0l-.46,0Zm2.47,39.76h0A10.44,10.44,0,0,1,19.05,29.13,10.66,10.66,0,0,1,29.56,18.58h.13A10.89,10.89,0,0,1,40.24,29.31,10.66,10.66,0,0,1,29.56,39.76Z"/></g><g id="_Group_3" data-name="&lt;Group&gt;"><path class="cls-1" d="M74.76,32.34h0c1,0,1.2,0,1.47,1.16A6.34,6.34,0,0,0,82.5,38,5.91,5.91,0,0,0,86,36.92l.05,0a4.06,4.06,0,0,1,1.25-.75.83.83,0,0,1,.36.14A8.59,8.59,0,0,1,91,39.68c-1,1.82-2.22,4.65.26,7.7l.25.33a4,4,0,0,0,3.29,1.91h.47c1.12,0,1.32,0,1.59,2.86l0,.27c.25,2.58,0,2.7-1.52,3a5.1,5.1,0,0,0-3.7,3.64,6.09,6.09,0,0,0,.91,6c.9,1,1.12,1.38-.44,3.16l-.1.12c-.78.89-1.59,1.82-2.16,1.82a2.59,2.59,0,0,1-1.27-.55,4.82,4.82,0,0,0-2.73-.81c-2.84,0-6.12,2.26-6.3,5.5-.08,1.48-.31,2-2.78,2.06h-.38l-1,0c-1.37,0-1.63-.11-1.88-1.46A5.59,5.59,0,0,0,68,70.6a6.18,6.18,0,0,0-4.14,1.64c-.61.55-.92.59-1,.59-.36,0-1.08-.61-1.66-1.1-.26-.22-.51-.44-.78-.65-1.83-1.45-1.65-1.74-1-2.7a6,6,0,0,0,.44-5.84A5.93,5.93,0,0,0,55,59.36c-1.43-.13-1.83-.43-1.86-2.22,0-.41,0-.82-.06-1.22-.14-2.12-.12-2.29,1.29-2.61a5.68,5.68,0,0,0,4.16-3.92,6.09,6.09,0,0,0-1.21-5.91c-.77-.86-1-1.12.55-2.82.25-.28.49-.57.73-.86.52-.63,1.11-1.34,1.46-1.34a2.09,2.09,0,0,1,1,.41,5.37,5.37,0,0,0,2.82.77c3,0,6.45-2.3,6.71-5.6.1-1.24.21-1.53,2.43-1.62l.72,0c.37,0,.73,0,1.05,0M75,65h0a10.7,10.7,0,0,0,0-21.4H75A10.7,10.7,0,0,0,75,65h0m-.25-34.64c-.6,0-1.22.05-1.86.08-2.34.09-4.09.53-4.33,3.46C68.4,36,66,37.64,63.85,37.64a3.34,3.34,0,0,1-1.76-.47A3.93,3.93,0,0,0,60,36.46c-1.62,0-2.53,1.6-3.67,2.85-1.56,1.71-2.55,3.29-.56,5.5s.9,5.92-1.9,6.55c-3.68.83-2.83,3.39-2.79,5.81s.91,3.92,3.67,4.18a3.74,3.74,0,0,1,2.9,6c-1.58,2.53-.3,3.92,1.5,5.34,1.22,1,2.3,2.18,3.68,2.18a3.57,3.57,0,0,0,2.35-1.11A4.21,4.21,0,0,1,68,72.6a3.57,3.57,0,0,1,3.56,3c.51,2.7,2,3.09,3.85,3.09.47,0,1,0,1.46-.05,2.67-.09,4.54-.74,4.71-3.94.11-2,2.34-3.61,4.3-3.61a2.81,2.81,0,0,1,1.6.47,4.33,4.33,0,0,0,2.4.89c1.52,0,2.58-1.26,3.77-2.62,1.66-1.91,2.46-3.6.4-5.84-1.59-1.72-.53-5.89,1.68-6.29,3.28-.6,3.4-2.48,3.15-5.15s-.36-4.93-3.61-4.93H94.8c-1,0-1.38-.76-2-1.5-1.89-2.33-.67-4.33.26-6.09.05-1.7-2.28-4.28-4.44-5.5a2.77,2.77,0,0,0-1.34-.39,4.46,4.46,0,0,0-2.47,1.16A3.9,3.9,0,0,1,82.5,36a4.39,4.39,0,0,1-4.33-3,3,3,0,0,0-3.41-2.68ZM75,63h0a8.7,8.7,0,0,1,0-17.39H75A8.7,8.7,0,0,1,75,63Z"/></g><g id="_Group_4" data-name="&lt;Group&gt;"><path class="cls-1" d="M39,61.18h.34c1.85,0,1.88.17,2,.6,1,4.07,3.63,4.67,5.11,4.67a8.41,8.41,0,0,0,3-.65.75.75,0,0,1,.28,0,3.6,3.6,0,0,1,2.86,2.17c-.13.32-.28.69-.44,1a5.73,5.73,0,0,0-.31,5,5.41,5.41,0,0,0,3.71,2.91c.83.23.93.26.93,2.14,0,1.69-.21,1.82-1.09,2.08a5.75,5.75,0,0,0-3.93,3.22,5.48,5.48,0,0,0,.6,5c.37.65.51.89-.82,2.21-.79.79-1.16.88-1.37.88a2.15,2.15,0,0,1-.92-.31,6.54,6.54,0,0,0-3.16-.9c-2.38,0-4.24,1.65-5,4.42-.2.76-.24.91-2.15.92h-.07c-1.64,0-1.72-.32-1.92-1.1-.68-2.73-2.59-4.42-5-4.42a6.09,6.09,0,0,0-3.08.9,1.89,1.89,0,0,1-.81.3c-.28,0-.72-.31-1.38-1-1.29-1.29-1.18-1.62-.65-2.46A5.15,5.15,0,0,0,26.55,84c-.41-1-1.43-2.41-4-3.09-.78-.21-1.19-.39-1.15-2,.05-2,.3-2,1-2.22,2.17-.55,3.6-1.61,4.24-3.14s.38-3.34-.79-5.32c-.32-.54-.39-.65.83-1.85.54-.53,1.16-1.14,1.5-1.14a1.48,1.48,0,0,1,.69.25,6.74,6.74,0,0,0,3.3,1c2.41,0,4.32-1.59,5.23-4.36.21-.64.29-.87,1.66-.87m.15,26.54h0a9,9,0,0,0,8.91-9,9.13,9.13,0,0,0-8.77-9.14H39.2a9.24,9.24,0,0,0-9.09,9.22,9.23,9.23,0,0,0,9.07,8.89M39,59.18c-1.61,0-2.93.31-3.56,2.25s-1.81,3-3.33,3a4.8,4.8,0,0,1-2.32-.69,3.37,3.37,0,0,0-1.67-.51c-1.15,0-2,.82-2.91,1.72C24,66.14,23,67.31,24.1,69.22c1.6,2.72,1,4.69-2.23,5.5-2.23.57-2.42,2.24-2.47,4.11s.51,3.42,2.64,4c2.7.72,3.58,2.48,2.07,4.88-1.32,2.09-.54,3.46.94,4.93a4.07,4.07,0,0,0,2.79,1.56,3.63,3.63,0,0,0,1.82-.57A4.1,4.1,0,0,1,31.73,93c1.45,0,2.6,1,3.06,2.9.55,2.21,2,2.62,3.86,2.62h.08c1.87,0,3.47-.11,4.08-2.41.5-1.92,1.59-2.93,3-2.93a4.56,4.56,0,0,1,2.19.65,3.88,3.88,0,0,0,1.89.56,4,4,0,0,0,2.78-1.46c1.35-1.34,2.3-2.62,1.14-4.62C52.36,85.71,53.42,83.77,56,83c2.27-.67,2.53-2.11,2.53-4s-.05-3.4-2.39-4.07c-2.55-.72-3.32-2.61-2.14-5.12.3-.62.55-1.27.71-1.65-.13-2.29-2.78-4.41-4.93-4.41a2.77,2.77,0,0,0-1,.18,6.69,6.69,0,0,1-2.32.51c-1.56,0-2.63-.94-3.17-3.15s-2.28-2.08-4-2.12Zm.16,26.54h0a7.06,7.06,0,1,1,0-14.11h.1a7.07,7.07,0,0,1,6.8,7.13,7,7,0,0,1-6.91,7Z"/></g></g></g></g></svg>