<svg xmlns="http://www.w3.org/2000/svg" viewBox="0 0 91.37 91.56"><defs><style>.cls-1{fill:none;stroke:#034760;stroke-miterlimit:10;stroke-width:2px;}</style></defs><title>Asset 1</title><g id="Layer_2" data-name="Layer 2"><g id="Layer_1-2" data-name="Layer 1"><g id="_Group_" data-name="&lt;Group&gt;"><g id="_Group_2" data-name="&lt;Group&gt;"><g id="_Group_3" data-name="&lt;Group&gt;"><g id="_Group_4" data-name="&lt;Group&gt;"><path id="_Compound_Path_" data-name="&lt;Compound Path&gt;" class="cls-1" d="M88.91,76.54c-4.78-4.88-9.6-9.72-14.42-14.57-1.26-1.28-2.94-2.13-4.46-1.07-2,1.37-2.94.37-4.09-.93a14.17,14.17,0,0,0-2-2c-1.73-1.28-1.84-2.37-.53-4.27A31.49,31.49,0,0,0,69,35,33.93,33.93,0,0,0,29.89,1.41C16,3.56,5.46,13.3,2,27.1A34.17,34.17,0,0,0,14.63,62.4c11.19,8.32,25.8,9.28,37.59,2,3.16-2,5-1.83,7,1.06a4.05,4.05,0,0,0,.65.66c1.27,1.12,2.3,2.06.94,4-1,1.43-.27,3.19,1,4.49,4.85,4.81,9.68,9.65,14.54,14.46,2,1.92,4,2,6,.07,2.16-2.08,4.31-4.18,6.41-6.32S90.94,78.62,88.91,76.54ZM35.32,62.92A27.82,27.82,0,1,1,35,7.29a27.82,27.82,0,0,1,.28,55.63Z" transform="translate(0)"/></g></g><g id="_Group_5" data-name="&lt;Group&gt;"><path id="_Path_" data-name="&lt;Path&gt;" class="cls-1" d="M46.75,17.47a7.51,7.51,0,0,1-2.17,0C42.54,17.18,42,18,42,20q.16,13.8,0,27.6c0,1.9.48,2.69,2.42,2.42a9.29,9.29,0,0,1,2.47,0c2.05.29,2.67-.53,2.61-2.57-.14-4.65,0-9.31,0-14,0-4.44-.12-8.9.05-13.33C49.61,18,48.89,17.17,46.75,17.47Z" transform="translate(0)"/></g><g id="_Group_6" data-name="&lt;Group&gt;"><path id="_Path_2" data-name="&lt;Path&gt;" class="cls-1" d="M37,32.55c0-5.45,0-5.36-5.51-5.22-1.69,0-2.08.6-2,2.16.11,3.11,0,6.21,0,9.32V45c0,5.12,0,5,5,5.08,2.11,0,2.6-.67,2.55-2.64C36.94,42.49,37,37.52,37,32.55Z" transform="translate(0)"/></g><g id="_Group_7" data-name="&lt;Group&gt;"><path id="_Path_3" data-name="&lt;Path&gt;" class="cls-1" d="M18.76,37.19c-1.27.09-1.85.4-1.82,1.78.07,3.08.06,6.17,0,9.25,0,1.24.27,1.76,1.68,1.86,5.86.41,5.86.48,5.86-5.45V43.4C24.48,36.73,24.48,36.78,18.76,37.19Z" transform="translate(0)"/></g></g></g></g></g></svg>