<svg xmlns="http://www.w3.org/2000/svg" viewBox="0 0 37.52 37.82"><defs><style>.cls-1{fill:#fff;}</style></defs><title>Asset 7</title><g id="Layer_2" data-name="Layer 2"><g id="Layer_1-2" data-name="Layer 1"><g id="_Group_" data-name="&lt;Group&gt;"><path id="_Path_" data-name="&lt;Path&gt;" class="cls-1" d="M14.3,23.25c3.73,3.48,6.88,4.6,9.26,4.63a7.32,7.32,0,0,0,1.82-.19,6.1,6.1,0,0,0,3.25-2.83,1.36,1.36,0,0,0-.77-2l-3.63-1a1.36,1.36,0,0,0-1.34.36L22,23a1.33,1.33,0,0,1-1.44.3l-.18-.08-.07,0-.12-.06-.09-.05L20,23.06,19.89,23l-.12-.07-.1-.06-.13-.08-.09-.06-.16-.11-.08-.05L19,22.41l-.07-.05-.18-.13a.27.27,0,0,1-.08-.07L18.48,22,18.39,22l-.17-.14-.08-.06-.2-.16-.05,0c-.36-.29-.71-.6-1.06-.91h0l-.24-.23a13.34,13.34,0,0,1-2.28-2.59,1.33,1.33,0,0,1,.11-1.47l.77-1A1.35,1.35,0,0,0,15.35,14l-1.53-3.46A1.34,1.34,0,0,0,11.71,10a6.12,6.12,0,0,0-2.37,3.6C9.08,16.19,10.18,19.4,14.3,23.25Z"/><path id="_Compound_Path_" data-name="&lt;Compound Path&gt;" class="cls-1" d="M37.51,18.7v-.38a1,1,0,0,0,0-.17c0-.11,0-.23,0-.35s0-.11,0-.17,0-.23,0-.34,0-.12,0-.18l0-.32a1.11,1.11,0,0,0,0-.19c0-.11,0-.21,0-.32s0-.12,0-.18,0-.21,0-.32l0-.18-.06-.31,0-.19-.06-.3c0-.06,0-.13-.05-.19s0-.2-.07-.3,0-.12,0-.18,0-.2-.08-.3,0-.12,0-.18l-.09-.3a1.09,1.09,0,0,0,0-.17l-.09-.3-.06-.17c0-.1-.07-.2-.1-.29l-.07-.18c0-.09-.07-.19-.11-.28l-.06-.17-.12-.29L36,11.34c0-.1-.08-.19-.13-.29l-.07-.16-.13-.28-.08-.16-.14-.28L35.36,10l-.15-.28-.08-.15L35,9.32l-.08-.14-.17-.28-.09-.14-.18-.28-.08-.12c-.06-.1-.13-.19-.19-.28L34.1,8l-.21-.29a.86.86,0,0,1-.07-.1c-.08-.1-.15-.2-.23-.29l-.07-.09a3.76,3.76,0,0,0-.25-.31l-.05-.07-.28-.33,0,0A18.76,18.76,0,0,0,2,27.28l-2,9.66a.69.69,0,0,0,0,.38h0a1.17,1.17,0,0,0,0,.11v0a.9.9,0,0,0,.15.19h0a.55.55,0,0,0,.21.12h0a.69.69,0,0,0,.25,0h0l.13,0,9.48-2.24a18.6,18.6,0,0,0,8.06,1.95,18.79,18.79,0,0,0,19-18.15c0-.18,0-.35,0-.52S37.51,18.74,37.51,18.7ZM5.67,25.42A14.69,14.69,0,0,1,8.37,8.37,14.69,14.69,0,0,1,28.71,8h0l.43.41A14.69,14.69,0,0,1,18.76,33.44a15.85,15.85,0,0,1-1.7-.09h0l-.34-.05h-.07a14.53,14.53,0,0,1-2.45-.57h0l-.24-.09-.16-.05-.06,0a14.15,14.15,0,0,1-1.5-.65l-1.32-.65L5.09,32.63l.12-.58h0L6.32,26.7Z"/></g></g></g></svg>